<?xml version="1.0" standalone="no"?>
<!DOCTYPE svg PUBLIC "-//W3C//DTD SVG 20010904//EN"
 "http://www.w3.org/TR/2001/REC-SVG-20010904/DTD/svg10.dtd">
<svg version="1.0" xmlns="http://www.w3.org/2000/svg"
 width="512.000000pt" height="512.000000pt" viewBox="0 0 512.000000 512.000000"
 preserveAspectRatio="xMidYMid meet">
<metadata>
Created by potrace 1.14, written by Peter Selinger 2001-2017
</metadata>
<g transform="translate(0.000000,512.000000) scale(0.100000,-0.100000)"
fill="#000000" stroke="none">
<path d="M0 2560 l0 -2560 2560 0 2560 0 0 2560 0 2560 -2560 0 -2560 0 0
-2560z m2872 1460 c285 -60 519 -189 739 -409 221 -222 348 -451 411 -744 32
-148 32 -466 0 -614 -64 -297 -209 -554 -435 -770 -212 -202 -442 -325 -720
-385 -148 -32 -466 -32 -614 0 -278 60 -509 184 -720 386 -226 215 -371 472
-435 769 -32 148 -32 466 0 614 63 293 190 522 411 744 249 248 526 387 857
429 115 15 395 4 506 -20z"/>
<path d="M2419 3749 c-261 -27 -496 -144 -700 -348 -214 -215 -323 -442 -350
-732 -25 -270 40 -535 187 -757 75 -112 244 -281 356 -356 390 -258 906 -258
1296 0 112 75 281 244 356 356 147 222 212 487 187 757 -27 290 -136 517 -350
732 -274 273 -600 389 -982 348z m348 -325 c291 -84 489 -250 602 -508 112
-256 114 -450 6 -709 -110 -261 -321 -447 -590 -518 -102 -27 -305 -30 -411
-6 -91 20 -207 68 -284 118 -69 44 -150 116 -150 133 0 6 140 151 310 321
l310 310 0 448 0 448 63 -7 c34 -4 99 -17 144 -30z"/>
</g>
</svg>
