<?xml version="1.0" standalone="no"?>
<!DOCTYPE svg PUBLIC "-//W3C//DTD SVG 20010904//EN"
 "http://www.w3.org/TR/2001/REC-SVG-20010904/DTD/svg10.dtd">
<svg version="1.0" xmlns="http://www.w3.org/2000/svg"
 width="512.000000pt" height="512.000000pt" viewBox="0 0 512.000000 512.000000"
 preserveAspectRatio="xMidYMid meet">
<metadata>
Created by potrace 1.14, written by Peter Selinger 2001-2017
</metadata>
<g transform="translate(0.000000,512.000000) scale(0.100000,-0.100000)"
fill="#000000" stroke="none">
<path d="M0 2560 l0 -2560 2560 0 2560 0 0 2560 0 2560 -2560 0 -2560 0 0
-2560z m2775 1470 c320 -46 582 -177 823 -414 149 -146 263 -310 338 -489 139
-327 139 -807 0 -1134 -75 -179 -189 -343 -338 -489 -297 -292 -621 -424
-1038 -424 -344 0 -622 90 -882 286 -97 73 -250 227 -325 328 -57 77 -130 205
-169 299 -139 329 -139 805 1 1137 123 293 382 581 660 733 159 87 319 141
490 166 84 12 356 13 440 1z"/>
<path d="M2320 3740 c-168 -36 -305 -97 -450 -200 -154 -110 -307 -284 -385
-439 -45 -89 -94 -236 -110 -328 -20 -112 -19 -328 1 -433 17 -90 66 -235 109
-321 45 -90 158 -240 241 -320 177 -169 388 -281 614 -323 108 -21 332 -21
440 0 90 17 236 66 321 109 155 78 329 231 439 385 79 111 110 169 156 298 46
125 64 238 64 392 0 257 -66 470 -208 675 -109 156 -296 322 -451 400 -86 43
-231 92 -321 109 -115 22 -349 20 -460 -4z m439 -321 c55 -13 125 -40 205 -81
108 -55 132 -73 217 -158 90 -89 100 -103 162 -230 96 -198 122 -339 93 -510
-22 -128 -39 -176 -105 -305 -66 -129 -161 -237 -280 -318 -158 -106 -272
-140 -481 -140 -208 -1 -333 34 -481 133 -70 47 -139 108 -139 124 0 5 137
147 305 314 l305 304 0 450 0 450 58 -6 c31 -4 95 -16 141 -27z"/>
</g>
</svg>
